<?xml version="1.0" standalone="no"?>
<svg viewBox="130 100 70 80" xmlns="http://www.w3.org/2000/svg">
  <path fill="#48CAE4" d="M41.3,-70C50.3,-66.3,52.2,-48.8,54.8,-34.8C57.4,-20.8,60.7,-10.4,65.9,3C71,16.4,78,32.7,75.4,46.6C72.8,60.6,60.5,72.1,46.3,72.7C32.2,73.3,16.1,63,1,61.3C-14.1,59.6,-28.3,66.6,-42.1,65.8C-55.9,65,-69.4,56.4,-77.4,44.2C-85.3,31.9,-87.7,16,-87.5,0.1C-87.3,-15.7,-84.5,-31.5,-76.9,-44.2C-69.2,-57,-56.7,-66.8,-43.1,-67.8C-29.5,-68.8,-14.7,-61.1,0.7,-62.3C16.1,-63.5,32.3,-73.7,41.3,-70Z" transform="translate(100 100)" />
</svg>
