<?xml version="1.0" encoding="UTF-8"?>
<svg xmlns="http://www.w3.org/2000/svg" xmlns:xlink="http://www.w3.org/1999/xlink" width="375pt" height="374.999991pt" viewBox="0 0 375 374.999991" version="1.2">
<defs>
<clipPath id="clip1">
  <path d="M 131 204 L 141 204 L 141 212 L 131 212 Z M 131 204 "/>
</clipPath>
<clipPath id="clip2">
  <path d="M 32.128906 230.441406 L 324.152344 102.671875 L 342.488281 144.585938 L 50.46875 272.355469 Z M 32.128906 230.441406 "/>
</clipPath>
<clipPath id="clip3">
  <path d="M 32.128906 230.441406 L 324.152344 102.671875 L 342.488281 144.585938 L 50.46875 272.355469 Z M 32.128906 230.441406 "/>
</clipPath>
<clipPath id="clip4">
  <path d="M 143 198 L 150 198 L 150 203 L 143 203 Z M 143 198 "/>
</clipPath>
<clipPath id="clip5">
  <path d="M 32.128906 230.441406 L 324.152344 102.671875 L 342.488281 144.585938 L 50.46875 272.355469 Z M 32.128906 230.441406 "/>
</clipPath>
<clipPath id="clip6">
  <path d="M 32.128906 230.441406 L 324.152344 102.671875 L 342.488281 144.585938 L 50.46875 272.355469 Z M 32.128906 230.441406 "/>
</clipPath>
<clipPath id="clip7">
  <path d="M 163 202 L 168 202 L 168 206 L 163 206 Z M 163 202 "/>
</clipPath>
<clipPath id="clip8">
  <path d="M 32.128906 230.441406 L 324.152344 102.671875 L 342.488281 144.585938 L 50.46875 272.355469 Z M 32.128906 230.441406 "/>
</clipPath>
<clipPath id="clip9">
  <path d="M 32.128906 230.441406 L 324.152344 102.671875 L 342.488281 144.585938 L 50.46875 272.355469 Z M 32.128906 230.441406 "/>
</clipPath>
<clipPath id="clip10">
  <path d="M 117 225 L 118 225 L 118 226 L 117 226 Z M 117 225 "/>
</clipPath>
<clipPath id="clip11">
  <path d="M 32.128906 230.441406 L 324.152344 102.671875 L 342.488281 144.585938 L 50.46875 272.355469 Z M 32.128906 230.441406 "/>
</clipPath>
<clipPath id="clip12">
  <path d="M 32.128906 230.441406 L 324.152344 102.671875 L 342.488281 144.585938 L 50.46875 272.355469 Z M 32.128906 230.441406 "/>
</clipPath>
<clipPath id="clip13">
  <path d="M 252 130 L 264 130 L 264 149 L 252 149 Z M 252 130 "/>
</clipPath>
<clipPath id="clip14">
  <path d="M 32.128906 230.441406 L 324.152344 102.671875 L 342.488281 144.585938 L 50.46875 272.355469 Z M 32.128906 230.441406 "/>
</clipPath>
<clipPath id="clip15">
  <path d="M 32.128906 230.441406 L 324.152344 102.671875 L 342.488281 144.585938 L 50.46875 272.355469 Z M 32.128906 230.441406 "/>
</clipPath>
<clipPath id="clip16">
  <path d="M 323 129 L 325 129 L 325 132 L 323 132 Z M 323 129 "/>
</clipPath>
<clipPath id="clip17">
  <path d="M 32.128906 230.441406 L 324.152344 102.671875 L 342.488281 144.585938 L 50.46875 272.355469 Z M 32.128906 230.441406 "/>
</clipPath>
<clipPath id="clip18">
  <path d="M 32.128906 230.441406 L 324.152344 102.671875 L 342.488281 144.585938 L 50.46875 272.355469 Z M 32.128906 230.441406 "/>
</clipPath>
<clipPath id="clip19">
  <path d="M 182 205 L 183 205 L 183 214 L 182 214 Z M 182 205 "/>
</clipPath>
<clipPath id="clip20">
  <path d="M 32.128906 230.441406 L 324.152344 102.671875 L 342.488281 144.585938 L 50.46875 272.355469 Z M 32.128906 230.441406 "/>
</clipPath>
<clipPath id="clip21">
  <path d="M 32.128906 230.441406 L 324.152344 102.671875 L 342.488281 144.585938 L 50.46875 272.355469 Z M 32.128906 230.441406 "/>
</clipPath>
<clipPath id="clip22">
  <path d="M 298 131 L 303 131 L 303 134 L 298 134 Z M 298 131 "/>
</clipPath>
<clipPath id="clip23">
  <path d="M 32.128906 230.441406 L 324.152344 102.671875 L 342.488281 144.585938 L 50.46875 272.355469 Z M 32.128906 230.441406 "/>
</clipPath>
<clipPath id="clip24">
  <path d="M 32.128906 230.441406 L 324.152344 102.671875 L 342.488281 144.585938 L 50.46875 272.355469 Z M 32.128906 230.441406 "/>
</clipPath>
<clipPath id="clip25">
  <path d="M 130 212 L 131 212 L 131 214 L 130 214 Z M 130 212 "/>
</clipPath>
<clipPath id="clip26">
  <path d="M 32.128906 230.441406 L 324.152344 102.671875 L 342.488281 144.585938 L 50.46875 272.355469 Z M 32.128906 230.441406 "/>
</clipPath>
<clipPath id="clip27">
  <path d="M 32.128906 230.441406 L 324.152344 102.671875 L 342.488281 144.585938 L 50.46875 272.355469 Z M 32.128906 230.441406 "/>
</clipPath>
<clipPath id="clip28">
  <path d="M 304 127 L 309 127 L 309 131 L 304 131 Z M 304 127 "/>
</clipPath>
<clipPath id="clip29">
  <path d="M 32.128906 230.441406 L 324.152344 102.671875 L 342.488281 144.585938 L 50.46875 272.355469 Z M 32.128906 230.441406 "/>
</clipPath>
<clipPath id="clip30">
  <path d="M 32.128906 230.441406 L 324.152344 102.671875 L 342.488281 144.585938 L 50.46875 272.355469 Z M 32.128906 230.441406 "/>
</clipPath>
<clipPath id="clip31">
  <path d="M 298 131 L 303 131 L 303 135 L 298 135 Z M 298 131 "/>
</clipPath>
<clipPath id="clip32">
  <path d="M 32.128906 230.441406 L 324.152344 102.671875 L 342.488281 144.585938 L 50.46875 272.355469 Z M 32.128906 230.441406 "/>
</clipPath>
<clipPath id="clip33">
  <path d="M 32.128906 230.441406 L 324.152344 102.671875 L 342.488281 144.585938 L 50.46875 272.355469 Z M 32.128906 230.441406 "/>
</clipPath>
<clipPath id="clip34">
  <path d="M 280 142 L 287 142 L 287 148 L 280 148 Z M 280 142 "/>
</clipPath>
<clipPath id="clip35">
  <path d="M 32.128906 230.441406 L 324.152344 102.671875 L 342.488281 144.585938 L 50.46875 272.355469 Z M 32.128906 230.441406 "/>
</clipPath>
<clipPath id="clip36">
  <path d="M 32.128906 230.441406 L 324.152344 102.671875 L 342.488281 144.585938 L 50.46875 272.355469 Z M 32.128906 230.441406 "/>
</clipPath>
<clipPath id="clip37">
  <path d="M 268 154 L 273 154 L 273 158 L 268 158 Z M 268 154 "/>
</clipPath>
<clipPath id="clip38">
  <path d="M 32.128906 230.441406 L 324.152344 102.671875 L 342.488281 144.585938 L 50.46875 272.355469 Z M 32.128906 230.441406 "/>
</clipPath>
<clipPath id="clip39">
  <path d="M 32.128906 230.441406 L 324.152344 102.671875 L 342.488281 144.585938 L 50.46875 272.355469 Z M 32.128906 230.441406 "/>
</clipPath>
<clipPath id="clip40">
  <path d="M 182 191 L 183 191 L 183 192 L 182 192 Z M 182 191 "/>
</clipPath>
<clipPath id="clip41">
  <path d="M 32.128906 230.441406 L 324.152344 102.671875 L 342.488281 144.585938 L 50.46875 272.355469 Z M 32.128906 230.441406 "/>
</clipPath>
<clipPath id="clip42">
  <path d="M 32.128906 230.441406 L 324.152344 102.671875 L 342.488281 144.585938 L 50.46875 272.355469 Z M 32.128906 230.441406 "/>
</clipPath>
<clipPath id="clip43">
  <path d="M 130 212 L 131 212 L 131 214 L 130 214 Z M 130 212 "/>
</clipPath>
<clipPath id="clip44">
  <path d="M 32.128906 230.441406 L 324.152344 102.671875 L 342.488281 144.585938 L 50.46875 272.355469 Z M 32.128906 230.441406 "/>
</clipPath>
<clipPath id="clip45">
  <path d="M 32.128906 230.441406 L 324.152344 102.671875 L 342.488281 144.585938 L 50.46875 272.355469 Z M 32.128906 230.441406 "/>
</clipPath>
<clipPath id="clip46">
  <path d="M 174 193 L 180 193 L 180 198 L 174 198 Z M 174 193 "/>
</clipPath>
<clipPath id="clip47">
  <path d="M 32.128906 230.441406 L 324.152344 102.671875 L 342.488281 144.585938 L 50.46875 272.355469 Z M 32.128906 230.441406 "/>
</clipPath>
<clipPath id="clip48">
  <path d="M 32.128906 230.441406 L 324.152344 102.671875 L 342.488281 144.585938 L 50.46875 272.355469 Z M 32.128906 230.441406 "/>
</clipPath>
<clipPath id="clip49">
  <path d="M 245 157 L 250 157 L 250 161 L 245 161 Z M 245 157 "/>
</clipPath>
<clipPath id="clip50">
  <path d="M 32.128906 230.441406 L 324.152344 102.671875 L 342.488281 144.585938 L 50.46875 272.355469 Z M 32.128906 230.441406 "/>
</clipPath>
<clipPath id="clip51">
  <path d="M 32.128906 230.441406 L 324.152344 102.671875 L 342.488281 144.585938 L 50.46875 272.355469 Z M 32.128906 230.441406 "/>
</clipPath>
<clipPath id="clip52">
  <path d="M 130 212 L 131 212 L 131 213 L 130 213 Z M 130 212 "/>
</clipPath>
<clipPath id="clip53">
  <path d="M 32.128906 230.441406 L 324.152344 102.671875 L 342.488281 144.585938 L 50.46875 272.355469 Z M 32.128906 230.441406 "/>
</clipPath>
<clipPath id="clip54">
  <path d="M 32.128906 230.441406 L 324.152344 102.671875 L 342.488281 144.585938 L 50.46875 272.355469 Z M 32.128906 230.441406 "/>
</clipPath>
<clipPath id="clip55">
  <path d="M 50 120 L 332 120 L 332 272 L 50 272 Z M 50 120 "/>
</clipPath>
<clipPath id="clip56">
  <path d="M 32.128906 230.441406 L 324.152344 102.671875 L 342.488281 144.585938 L 50.46875 272.355469 Z M 32.128906 230.441406 "/>
</clipPath>
<clipPath id="clip57">
  <path d="M 32.128906 230.441406 L 324.152344 102.671875 L 342.488281 144.585938 L 50.46875 272.355469 Z M 32.128906 230.441406 "/>
</clipPath>
<clipPath id="clip58">
  <path d="M 32.828125 231.027344 L 324.632812 103.351562 L 342.9375 145.191406 L 51.132812 272.867188 Z M 32.828125 231.027344 "/>
</clipPath>
<clipPath id="clip59">
  <path d="M 32.828125 231.027344 L 324.09375 103.585938 L 342.113281 144.769531 L 50.847656 272.210938 Z M 32.828125 231.027344 "/>
</clipPath>
<clipPath id="clip60">
  <path d="M 315 124 L 316 124 L 316 125 L 315 125 Z M 315 124 "/>
</clipPath>
<clipPath id="clip61">
  <path d="M 32.128906 230.441406 L 324.152344 102.671875 L 342.488281 144.585938 L 50.46875 272.355469 Z M 32.128906 230.441406 "/>
</clipPath>
<clipPath id="clip62">
  <path d="M 32.128906 230.441406 L 324.152344 102.671875 L 342.488281 144.585938 L 50.46875 272.355469 Z M 32.128906 230.441406 "/>
</clipPath>
<clipPath id="clip63">
  <path d="M 222 154 L 233 154 L 233 163 L 222 163 Z M 222 154 "/>
</clipPath>
<clipPath id="clip64">
  <path d="M 32.128906 230.441406 L 324.152344 102.671875 L 342.488281 144.585938 L 50.46875 272.355469 Z M 32.128906 230.441406 "/>
</clipPath>
<clipPath id="clip65">
  <path d="M 32.128906 230.441406 L 324.152344 102.671875 L 342.488281 144.585938 L 50.46875 272.355469 Z M 32.128906 230.441406 "/>
</clipPath>
<clipPath id="clip66">
  <path d="M 130 211 L 132 211 L 132 213 L 130 213 Z M 130 211 "/>
</clipPath>
<clipPath id="clip67">
  <path d="M 32.128906 230.441406 L 324.152344 102.671875 L 342.488281 144.585938 L 50.46875 272.355469 Z M 32.128906 230.441406 "/>
</clipPath>
<clipPath id="clip68">
  <path d="M 32.128906 230.441406 L 324.152344 102.671875 L 342.488281 144.585938 L 50.46875 272.355469 Z M 32.128906 230.441406 "/>
</clipPath>
<clipPath id="clip69">
  <path d="M 196 179 L 203 179 L 203 184 L 196 184 Z M 196 179 "/>
</clipPath>
<clipPath id="clip70">
  <path d="M 32.128906 230.441406 L 324.152344 102.671875 L 342.488281 144.585938 L 50.46875 272.355469 Z M 32.128906 230.441406 "/>
</clipPath>
<clipPath id="clip71">
  <path d="M 32.128906 230.441406 L 324.152344 102.671875 L 342.488281 144.585938 L 50.46875 272.355469 Z M 32.128906 230.441406 "/>
</clipPath>
<clipPath id="clip72">
  <path d="M 315 125 L 317 125 L 317 126 L 315 126 Z M 315 125 "/>
</clipPath>
<clipPath id="clip73">
  <path d="M 32.128906 230.441406 L 324.152344 102.671875 L 342.488281 144.585938 L 50.46875 272.355469 Z M 32.128906 230.441406 "/>
</clipPath>
<clipPath id="clip74">
  <path d="M 32.128906 230.441406 L 324.152344 102.671875 L 342.488281 144.585938 L 50.46875 272.355469 Z M 32.128906 230.441406 "/>
</clipPath>
</defs>
<g id="surface1">
<path style=" stroke:none;fill-rule:nonzero;fill:rgb(79.219055%,94.119263%,97.24884%);fill-opacity:1;" d="M 258.027344 67.703125 C 273.417969 74.03125 276.667969 103.957031 281.113281 127.894531 C 285.558594 151.835938 291.199219 169.621094 300.09375 192.535156 C 308.8125 215.449219 320.785156 243.320312 316.339844 267.089844 C 311.890625 291.03125 290.859375 310.695312 266.578125 311.722656 C 242.464844 312.746094 214.933594 295.132812 189.113281 292.226562 C 163.292969 289.320312 139.011719 301.289062 115.414062 299.921875 C 91.816406 298.554688 68.730469 283.847656 55.050781 262.984375 C 41.542969 241.953125 37.4375 214.765625 37.777344 187.574219 C 38.121094 160.558594 42.910156 133.539062 55.90625 111.820312 C 69.070312 89.933594 90.445312 73.175781 113.703125 71.464844 C 136.960938 69.757812 162.265625 82.921875 188.601562 80.871094 C 214.933594 78.820312 242.636719 61.378906 258.027344 67.703125 Z M 258.027344 67.703125 "/>
<g clip-path="url(#clip1)" clip-rule="nonzero">
<g clip-path="url(#clip2)" clip-rule="nonzero">
<g clip-path="url(#clip3)" clip-rule="nonzero">
<path style=" stroke:none;fill-rule:nonzero;fill:rgb(0%,70.588684%,84.709167%);fill-opacity:1;" d="M 140.226562 204.8125 C 138.113281 206.433594 136.429688 207.683594 134.921875 208.804688 C 134.171875 209.367188 133.460938 209.898438 132.761719 210.421875 L 131.71875 211.214844 L 131.195312 211.617188 L 131.144531 211.679688 L 131.1875 211.683594 C 131.210938 211.675781 131.164062 211.71875 131.320312 211.613281 C 131.539062 211.460938 131.769531 211.300781 132 211.140625 C 132.457031 210.8125 132.921875 210.472656 133.359375 210.152344 C 134.234375 209.511719 135 208.953125 135.398438 208.792969 C 134.808594 209.265625 133.183594 210.324219 133.332031 210.378906 C 134.652344 209.632812 137.058594 207.566406 137.992188 207.046875 C 139.628906 205.652344 138.332031 206.691406 136.550781 207.726562 C 137.144531 207.113281 140.28125 205.054688 140.226562 204.8125 "/>
</g>
</g>
</g>
<g clip-path="url(#clip4)" clip-rule="nonzero">
<g clip-path="url(#clip5)" clip-rule="nonzero">
<g clip-path="url(#clip6)" clip-rule="nonzero">
<path style=" stroke:none;fill-rule:nonzero;fill:rgb(0%,70.588684%,84.709167%);fill-opacity:1;" d="M 143.875 202.742188 C 145.488281 201.484375 147.980469 199.726562 149.269531 198.648438 C 147.90625 199.597656 144.863281 201.695312 143.875 202.742188 "/>
</g>
</g>
</g>
<g clip-path="url(#clip7)" clip-rule="nonzero">
<g clip-path="url(#clip8)" clip-rule="nonzero">
<g clip-path="url(#clip9)" clip-rule="nonzero">
<path style=" stroke:none;fill-rule:nonzero;fill:rgb(0%,70.588684%,84.709167%);fill-opacity:1;" d="M 163.039062 205.996094 C 164.175781 205.289062 165.878906 203.800781 167.277344 202.972656 C 167.363281 202.640625 163.425781 205.621094 163.039062 205.996094 "/>
</g>
</g>
</g>
<g clip-path="url(#clip10)" clip-rule="nonzero">
<g clip-path="url(#clip11)" clip-rule="nonzero">
<g clip-path="url(#clip12)" clip-rule="nonzero">
<path style=" stroke:none;fill-rule:nonzero;fill:rgb(0%,70.588684%,84.709167%);fill-opacity:1;" d="M 117.558594 225.503906 L 117.554688 225.5 L 117.558594 225.511719 Z M 117.558594 225.503906 "/>
</g>
</g>
</g>
<g clip-path="url(#clip13)" clip-rule="nonzero">
<g clip-path="url(#clip14)" clip-rule="nonzero">
<g clip-path="url(#clip15)" clip-rule="nonzero">
<path style=" stroke:none;fill-rule:nonzero;fill:rgb(0%,70.588684%,84.709167%);fill-opacity:1;" d="M 259.746094 131.011719 C 260.765625 136.039062 261.960938 141.980469 263.347656 148.375 C 262.941406 146.351562 262.53125 144.328125 262.121094 142.3125 C 261.917969 141.304688 260.820312 135.832031 259.8125 130.820312 C 255.929688 134.007812 252.394531 136.945312 252.902344 136.6875 C 254.839844 135.078125 257.121094 133.191406 259.746094 131.011719 "/>
</g>
</g>
</g>
<g clip-path="url(#clip16)" clip-rule="nonzero">
<g clip-path="url(#clip17)" clip-rule="nonzero">
<g clip-path="url(#clip18)" clip-rule="nonzero">
<path style=" stroke:none;fill-rule:nonzero;fill:rgb(0%,70.588684%,84.709167%);fill-opacity:1;" d="M 323.742188 130.289062 C 324.671875 129.953125 322.011719 132.15625 324.074219 130.722656 C 323.828125 130.707031 325.46875 128.972656 323.742188 130.289062 "/>
</g>
</g>
</g>
<g clip-path="url(#clip19)" clip-rule="nonzero">
<g clip-path="url(#clip20)" clip-rule="nonzero">
<g clip-path="url(#clip21)" clip-rule="nonzero">
<path style=" stroke:none;fill-rule:nonzero;fill:rgb(0%,70.588684%,84.709167%);fill-opacity:1;" d="M 182.253906 213.332031 L 182.378906 213.230469 L 182.632812 205.691406 Z M 182.253906 213.332031 "/>
</g>
</g>
</g>
<g clip-path="url(#clip22)" clip-rule="nonzero">
<g clip-path="url(#clip23)" clip-rule="nonzero">
<g clip-path="url(#clip24)" clip-rule="nonzero">
<path style=" stroke:none;fill-rule:nonzero;fill:rgb(0%,70.588684%,84.709167%);fill-opacity:1;" d="M 299.714844 133.09375 C 299.933594 132.65625 301.945312 131.601562 302.167969 131.164062 C 300.925781 132.097656 299.308594 132.960938 298.742188 133.523438 C 300.386719 132.308594 298.546875 133.898438 299.714844 133.09375 "/>
</g>
</g>
</g>
<g clip-path="url(#clip25)" clip-rule="nonzero">
<g clip-path="url(#clip26)" clip-rule="nonzero">
<g clip-path="url(#clip27)" clip-rule="nonzero">
<path style=" stroke:none;fill-rule:nonzero;fill:rgb(0%,70.588684%,84.709167%);fill-opacity:1;" d="M 130.242188 213.441406 L 130.292969 213.402344 C 130.273438 213.191406 130.253906 212.976562 130.234375 212.777344 L 130.175781 212.828125 L 130.183594 212.921875 C 130.203125 213.09375 130.222656 213.269531 130.242188 213.441406 "/>
</g>
</g>
</g>
<g clip-path="url(#clip28)" clip-rule="nonzero">
<g clip-path="url(#clip29)" clip-rule="nonzero">
<g clip-path="url(#clip30)" clip-rule="nonzero">
<path style=" stroke:none;fill-rule:nonzero;fill:rgb(0%,70.588684%,84.709167%);fill-opacity:1;" d="M 308.472656 127.449219 C 307.632812 128.078125 305.375 129.851562 304.441406 130.734375 C 305.964844 129.578125 310.101562 126.515625 308.472656 127.449219 "/>
</g>
</g>
</g>
<g clip-path="url(#clip31)" clip-rule="nonzero">
<g clip-path="url(#clip32)" clip-rule="nonzero">
<g clip-path="url(#clip33)" clip-rule="nonzero">
<path style=" stroke:none;fill-rule:nonzero;fill:rgb(0%,70.588684%,84.709167%);fill-opacity:1;" d="M 298.527344 134.964844 C 299.765625 133.988281 302.144531 132.335938 302.640625 131.792969 C 301.402344 132.773438 299.019531 134.425781 298.527344 134.964844 "/>
</g>
</g>
</g>
<g clip-path="url(#clip34)" clip-rule="nonzero">
<g clip-path="url(#clip35)" clip-rule="nonzero">
<g clip-path="url(#clip36)" clip-rule="nonzero">
<path style=" stroke:none;fill-rule:nonzero;fill:rgb(0%,70.588684%,84.709167%);fill-opacity:1;" d="M 280.496094 147.265625 C 282.867188 145.417969 284.867188 144.316406 286.375 142.992188 C 284.640625 144.253906 281.152344 146.5 280.496094 147.265625 "/>
</g>
</g>
</g>
<g clip-path="url(#clip37)" clip-rule="nonzero">
<g clip-path="url(#clip38)" clip-rule="nonzero">
<g clip-path="url(#clip39)" clip-rule="nonzero">
<path style=" stroke:none;fill-rule:nonzero;fill:rgb(0%,70.588684%,84.709167%);fill-opacity:1;" d="M 270.53125 155.628906 C 268.628906 156.890625 273.617188 153.347656 271.71875 154.613281 C 270.109375 155.777344 268.664062 156.847656 268.011719 157.460938 C 269.171875 156.515625 270.246094 156.042969 270.53125 155.628906 "/>
</g>
</g>
</g>
<g clip-path="url(#clip40)" clip-rule="nonzero">
<g clip-path="url(#clip41)" clip-rule="nonzero">
<g clip-path="url(#clip42)" clip-rule="nonzero">
<path style=" stroke:none;fill-rule:nonzero;fill:rgb(0%,70.588684%,84.709167%);fill-opacity:1;" d="M 182.664062 191.632812 C 182.6875 191.640625 182.671875 191.6875 182.746094 191.570312 C 182.789062 191.398438 182.75 191.378906 182.695312 191.386719 C 182.644531 191.398438 182.566406 191.484375 182.5625 191.644531 L 182.664062 191.632812 "/>
</g>
</g>
</g>
<g clip-path="url(#clip43)" clip-rule="nonzero">
<g clip-path="url(#clip44)" clip-rule="nonzero">
<g clip-path="url(#clip45)" clip-rule="nonzero">
<path style=" stroke:none;fill-rule:nonzero;fill:rgb(0%,70.588684%,84.709167%);fill-opacity:1;" d="M 130.460938 213.28125 C 130.4375 213.066406 130.414062 212.859375 130.394531 212.640625 L 130.339844 212.6875 C 130.363281 212.898438 130.386719 213.105469 130.414062 213.316406 L 130.460938 213.28125 "/>
</g>
</g>
</g>
<g clip-path="url(#clip46)" clip-rule="nonzero">
<g clip-path="url(#clip47)" clip-rule="nonzero">
<g clip-path="url(#clip48)" clip-rule="nonzero">
<path style=" stroke:none;fill-rule:nonzero;fill:rgb(0%,70.588684%,84.709167%);fill-opacity:1;" d="M 174.808594 197.390625 C 176.199219 196.328125 178.757812 194.597656 179.398438 193.960938 C 178.34375 194.609375 175.179688 196.914062 174.808594 197.390625 "/>
</g>
</g>
</g>
<g clip-path="url(#clip49)" clip-rule="nonzero">
<g clip-path="url(#clip50)" clip-rule="nonzero">
<g clip-path="url(#clip51)" clip-rule="nonzero">
<path style=" stroke:none;fill-rule:nonzero;fill:rgb(0%,70.588684%,84.709167%);fill-opacity:1;" d="M 249.382812 157.5625 C 249.464844 157.492188 249.546875 157.421875 249.621094 157.359375 C 249.695312 157.292969 249.648438 157.324219 249.671875 157.300781 L 249.683594 157.238281 L 249.640625 157.265625 L 249.621094 157.277344 L 249.46875 157.402344 C 249.253906 157.570312 249.042969 157.738281 248.84375 157.898438 C 248.441406 158.222656 248.0625 158.527344 247.703125 158.820312 C 246.984375 159.410156 246.347656 159.960938 245.753906 160.550781 C 246.421875 159.980469 247.363281 159.226562 248.21875 158.53125 C 248.640625 158.179688 249.042969 157.847656 249.382812 157.5625 "/>
</g>
</g>
</g>
<g clip-path="url(#clip52)" clip-rule="nonzero">
<g clip-path="url(#clip53)" clip-rule="nonzero">
<g clip-path="url(#clip54)" clip-rule="nonzero">
<path style=" stroke:none;fill-rule:nonzero;fill:rgb(0%,70.588684%,84.709167%);fill-opacity:1;" d="M 130.355469 212.480469 L 130.316406 212.492188 L 130.320312 212.515625 Z M 130.355469 212.480469 "/>
</g>
</g>
</g>
<g clip-path="url(#clip55)" clip-rule="nonzero">
<g clip-path="url(#clip56)" clip-rule="nonzero">
<g clip-path="url(#clip57)" clip-rule="nonzero">
<g clip-path="url(#clip58)" clip-rule="nonzero">
<g clip-path="url(#clip59)" clip-rule="nonzero">
<path style=" stroke:none;fill-rule:nonzero;fill:rgb(0%,70.588684%,84.709167%);fill-opacity:1;" d="M 325.804688 126.121094 C 325.339844 126.457031 325.449219 126.242188 324.898438 126.664062 C 324.5 126.761719 325.652344 125.929688 325.582031 125.835938 C 325.703125 125.988281 327.238281 124.730469 325.804688 126.121094 Z M 325.777344 125.230469 C 325.730469 125.464844 324.8125 126.226562 323.855469 127.011719 C 323.832031 126.816406 324.417969 126.253906 325.777344 125.230469 Z M 321.945312 127.945312 C 321.972656 127.820312 324.625 125.839844 324.496094 126.136719 C 323.808594 126.664062 323.121094 127.195312 322.433594 127.722656 C 322.453125 127.617188 322.273438 127.707031 321.945312 127.945312 Z M 312.011719 126.953125 C 312.6875 126.203125 313.574219 125.9375 314.1875 125.523438 C 313.59375 126.226562 313.007812 126.222656 311.671875 127.363281 C 311.644531 127.308594 312.152344 126.941406 312.460938 126.6875 C 312.503906 126.589844 312.265625 126.761719 312.011719 126.953125 Z M 269.175781 157.289062 C 268.1875 158.007812 268 158.273438 266.6875 159.171875 C 266.691406 159.125 266.632812 159.136719 266.519531 159.195312 C 266.472656 159.222656 266.40625 159.257812 266.335938 159.300781 L 266.269531 159.335938 C 266.179688 159.386719 266.066406 159.480469 265.921875 159.601562 C 265.644531 159.835938 265.21875 160.195312 264.886719 160.328125 C 265.230469 159.894531 265.570312 159.664062 265.800781 159.667969 C 265.90625 159.5 265.996094 159.375 266.082031 159.269531 L 266.1875 159.152344 L 266.207031 159.132812 L 266.269531 159.082031 C 266.585938 158.847656 266.910156 158.605469 267.253906 158.34375 C 268.640625 157.328125 270.328125 156.082031 272.773438 154.292969 C 271.988281 155.292969 268.386719 157.5625 267.421875 158.414062 C 269.738281 156.851562 275.21875 152.839844 269.175781 157.289062 Z M 232.414062 154.96875 C 233.085938 154.289062 236.90625 151.105469 238.40625 149.953125 C 236.566406 151.683594 235.011719 152.808594 232.414062 154.96875 Z M 221.226562 164.335938 C 221.644531 163.6875 224.996094 161.140625 226.785156 159.605469 C 226.136719 160.453125 223.277344 162.425781 221.226562 164.335938 Z M 212.78125 187.632812 C 213.839844 186.71875 215.171875 185.53125 217.203125 183.992188 C 216.214844 184.863281 214.273438 186.523438 212.78125 187.632812 Z M 198.839844 199.347656 C 199.90625 198.210938 201.265625 197.054688 203.582031 195.285156 C 202.855469 196.195312 199.84375 198.402344 198.839844 199.347656 Z M 196.167969 197.902344 L 196.167969 197.871094 L 196.589844 198.082031 L 196.585938 198.113281 Z M 185.925781 192.730469 L 186.34375 192.9375 L 186.316406 192.960938 L 185.902344 192.75 Z M 175.160156 180.6875 C 177.367188 179.074219 179.550781 177.476562 181.707031 175.898438 C 182.246094 175.503906 182.78125 175.109375 183.316406 174.714844 C 183.847656 174.335938 184.332031 174.066406 184.835938 173.734375 C 185.839844 173.105469 186.835938 172.480469 187.820312 171.855469 C 188.804688 171.234375 189.785156 170.613281 190.753906 170.003906 L 191.476562 169.542969 L 191.835938 169.316406 L 191.882812 169.285156 L 191.898438 169.332031 L 191.925781 169.441406 L 191.980469 169.652344 C 192.128906 170.226562 192.273438 170.792969 192.421875 171.355469 C 192.980469 173.5625 193.527344 175.710938 194.058594 177.796875 C 193.476562 175.324219 192.78125 172.445312 191.957031 169.144531 C 190.621094 169.9375 189.195312 170.851562 187.75 171.742188 C 186.296875 172.664062 184.828125 173.539062 183.292969 174.546875 C 180.230469 176.777344 177.089844 179.0625 174.03125 181.289062 C 172.253906 182.566406 170.523438 183.808594 168.921875 184.953125 C 169.847656 184.25 170.828125 183.507812 171.851562 182.734375 C 173.03125 181.855469 174.257812 180.945312 175.503906 180.011719 C 177.527344 178.523438 179.589844 177 181.660156 175.476562 L 183.214844 174.332031 C 183.480469 174.128906 183.730469 173.96875 183.96875 173.824219 L 184.699219 173.363281 C 185.675781 172.753906 186.652344 172.140625 187.621094 171.535156 C 188.589844 170.925781 189.550781 170.324219 190.503906 169.726562 C 190.980469 169.425781 191.457031 169.128906 191.929688 168.832031 L 192.105469 168.71875 L 192.171875 168.894531 L 192.492188 170.152344 C 193.042969 172.324219 193.574219 174.433594 194.082031 176.4375 C 194.804688 179.140625 195.382812 181.808594 195.8125 184.253906 C 195.710938 184.339844 195.605469 184.429688 195.5 184.515625 C 195.183594 182.601562 194.777344 180.871094 194.355469 179.589844 C 194.683594 181.0625 195.03125 182.824219 195.320312 184.667969 L 195.257812 184.722656 C 195.132812 183.914062 195 183.117188 194.847656 182.34375 C 194.667969 181.335938 194.441406 180.386719 194.234375 179.421875 C 194.007812 178.484375 193.78125 177.550781 193.550781 176.625 C 193.085938 174.761719 192.628906 172.914062 192.175781 171.089844 C 192.058594 170.625 191.9375 170.160156 191.820312 169.695312 L 191.769531 169.546875 L 191.335938 169.820312 L 190.761719 170.183594 C 189.996094 170.664062 189.238281 171.140625 188.488281 171.613281 C 186.980469 172.554688 185.5 173.476562 184.046875 174.382812 L 183.503906 174.722656 L 182.929688 175.140625 C 182.546875 175.417969 182.167969 175.691406 181.789062 175.964844 C 181.03125 176.507812 180.277344 177.046875 179.539062 177.582031 C 178.042969 178.640625 176.582031 179.679688 175.160156 180.6875 Z M 195.945312 185.039062 C 195.839844 185.128906 195.734375 185.214844 195.625 185.304688 C 195.59375 185.089844 195.558594 184.882812 195.527344 184.671875 C 195.628906 184.582031 195.730469 184.496094 195.835938 184.410156 C 195.875 184.621094 195.910156 184.832031 195.945312 185.039062 Z M 195.28125 184.875 L 195.34375 184.824219 C 195.375 185.035156 195.410156 185.242188 195.441406 185.457031 L 195.378906 185.507812 C 195.347656 185.296875 195.316406 185.085938 195.28125 184.875 Z M 148.050781 200.511719 C 147.65625 200.710938 151.039062 198.175781 152.605469 197.03125 C 151.46875 198.085938 150.46875 198.6875 148.050781 200.511719 Z M 136.28125 209.117188 C 137.929688 207.804688 140.65625 205.707031 142.550781 204.460938 C 140.71875 205.914062 138.167969 207.816406 136.28125 209.117188 Z M 130.105469 212.886719 L 130.175781 212.828125 C 130.132812 212.441406 130.097656 212.0625 130.058594 211.699219 C 130.039062 211.390625 130.015625 211.105469 129.996094 210.839844 C 130.03125 211.035156 130.074219 211.257812 130.117188 211.503906 C 130.136719 211.628906 130.160156 211.757812 130.179688 211.894531 C 130.207031 212.113281 130.234375 212.355469 130.261719 212.578125 L 130.222656 212.617188 L 130.234375 212.777344 L 130.28125 212.734375 C 130.304688 212.941406 130.332031 213.152344 130.351562 213.359375 L 130.292969 213.402344 C 130.402344 214.542969 130.519531 215.804688 130.636719 217.042969 C 130.652344 217.179688 130.664062 217.316406 130.679688 217.457031 C 130.621094 216.929688 130.5625 216.398438 130.507812 215.882812 C 130.417969 215.050781 130.328125 214.246094 130.242188 213.441406 L 130.167969 213.496094 C 130.148438 213.289062 130.125 213.089844 130.105469 212.886719 Z M 116.457031 215.6875 C 116.542969 216.453125 116.628906 217.226562 116.714844 217.996094 C 116.589844 216.867188 116.464844 215.746094 116.335938 214.597656 L 116.183594 213.226562 L 116.144531 212.882812 Z M 86.675781 227.484375 C 87.816406 226.765625 96.109375 219.589844 98.402344 217.976562 C 97.433594 218.679688 88.207031 226.523438 86.675781 227.484375 Z M 122.546875 197.546875 C 122.339844 197.71875 122.140625 197.878906 121.949219 198.035156 C 122.136719 197.878906 122.34375 197.714844 122.546875 197.546875 Z M 328.8125 123.191406 C 329.3125 122.699219 331.09375 121.320312 331.699219 120.960938 C 330.871094 121.4375 330.875 121.238281 330.648438 121.316406 C 326.203125 124.550781 326.8125 122.960938 323.953125 124.578125 C 323.730469 124.496094 325.378906 123.300781 325.871094 122.796875 C 325.414062 122.960938 323.792969 124.257812 323.246094 124.511719 C 323.464844 124.082031 326.433594 122.078125 325.648438 122.511719 C 324.449219 123.34375 323.460938 124.105469 322.34375 125.050781 C 322.566406 124.6875 319.496094 126.8125 321.226562 125.300781 C 319.832031 126.304688 319.515625 126.515625 318.566406 126.960938 C 320.101562 125.835938 320.070312 125.644531 321.382812 124.648438 C 320.269531 125.34375 320.179688 125.335938 319.8125 125.167969 C 320.765625 124.460938 321.355469 123.96875 321.390625 123.808594 C 319.863281 124.765625 319.273438 124.800781 318.058594 125.445312 C 318.855469 125.050781 320.832031 123.203125 319.601562 124.035156 C 318.425781 125.195312 319.4375 123.945312 318.96875 124.066406 C 316.824219 125.585938 315.863281 125.992188 315.992188 125.613281 C 315.570312 126.003906 314.132812 126.898438 314.019531 127.015625 C 315.445312 125.652344 311.71875 128.394531 312.898438 127.261719 C 314.566406 126.074219 314.476562 126.578125 316.089844 125.4375 C 316.730469 124.75 315.449219 125.554688 316.65625 124.46875 C 314.730469 125.945312 314.292969 125.976562 313.507812 126.34375 C 314.949219 125.253906 316.742188 124.058594 315.308594 125.277344 C 315.839844 124.882812 317.433594 123.867188 317.40625 123.742188 C 315.851562 124.714844 318.421875 122.917969 318.160156 123.015625 C 315.777344 124.792969 313.761719 125.773438 314.003906 125.285156 C 314.613281 124.796875 315.148438 124.386719 315.636719 124.03125 C 312.835938 125.941406 311.378906 126.996094 308.753906 128.675781 C 310.265625 127.554688 314.796875 124.242188 315.652344 124.019531 C 317.847656 122.425781 318.976562 122.003906 320.59375 121.066406 C 320.101562 120.578125 316.527344 123.070312 313.675781 124.855469 C 313.765625 124.574219 313.460938 124.601562 314.730469 123.664062 C 313.0625 124.851562 310.496094 126.761719 307.632812 128.917969 C 307.960938 128.691406 308.449219 128.300781 308.492188 128.339844 C 307.847656 128.839844 307.054688 129.421875 307.324219 129.378906 C 309.390625 127.765625 311.253906 126.585938 311.011719 126.503906 C 311.554688 126.355469 312.808594 125.070312 312.777344 125.386719 C 311.019531 126.808594 304.757812 131.445312 305.976562 130.175781 C 304.675781 131.296875 303.910156 131.746094 303.003906 132.273438 C 304.316406 131.222656 306.628906 129.621094 306.730469 129.453125 C 304.9375 130.609375 301.929688 132.496094 300.441406 134.054688 C 300.9375 133.695312 301.613281 133.160156 301.722656 133.164062 C 298.742188 135.601562 292.714844 140.214844 287.585938 143.75 C 291.351562 140.949219 294.914062 138.257812 297.914062 135.878906 C 297.421875 136.238281 296.742188 136.773438 296.632812 136.769531 C 298.992188 134.9375 300.160156 134.160156 301.125 133.238281 C 294.25 138.132812 288.804688 142.902344 280.449219 148.953125 C 280.300781 148.875 280.199219 148.773438 281.105469 148.09375 C 281.65625 147.675781 282.78125 147.109375 282.8125 146.90625 C 282.339844 147.242188 282.128906 147.332031 281.90625 147.425781 C 287.609375 143.09375 292.523438 139.691406 294.714844 137.671875 C 291.359375 140.25 289.433594 141.453125 287.460938 142.710938 C 290.144531 140.746094 291.21875 139.710938 292.238281 138.699219 C 291.519531 139.257812 290.0625 140.113281 289.742188 140.5625 C 290.253906 140.1875 290.742188 139.839844 290.648438 140.035156 C 288.417969 141.898438 286.851562 142.964844 285.410156 144.308594 C 286.226562 143.738281 287.097656 142.824219 287.117188 143.121094 C 284.667969 144.875 281.761719 147.183594 280.4375 148.0625 C 280.703125 148.28125 283.753906 145.523438 284.269531 145.378906 C 280.714844 148.324219 274.871094 152.4375 270.988281 155.371094 C 271.324219 155.140625 271.8125 154.769531 271.863281 154.808594 C 270.386719 155.882812 268.894531 156.964844 267.386719 158.0625 C 266.914062 158.402344 266.4375 158.746094 265.960938 159.089844 L 265.621094 159.316406 C 265.402344 159.460938 265.183594 159.613281 264.960938 159.757812 L 264.804688 159.859375 L 264.761719 159.886719 L 264.753906 159.839844 L 264.734375 159.734375 L 264.671875 159.316406 L 264.542969 158.527344 L 264.511719 158.335938 L 264.296875 157.222656 L 263.589844 153.675781 C 262.152344 146.535156 260.710938 139.394531 259.285156 132.308594 C 256.023438 135.007812 252.78125 137.691406 249.558594 140.359375 C 246.574219 142.851562 243.605469 145.328125 240.667969 147.777344 C 239.445312 148.816406 238.339844 149.847656 237.125 150.855469 C 223.5 162.136719 209.917969 173.507812 195.984375 185.007812 C 195.949219 184.796875 195.917969 184.582031 195.886719 184.367188 C 207.523438 174.597656 219.894531 164.214844 231.800781 154.222656 C 234.28125 152.136719 237.566406 149.515625 238.121094 148.785156 C 225.203125 159.699219 209.507812 172.710938 195.863281 184.210938 C 195.4375 181.496094 194.851562 178.65625 194.152344 175.984375 C 193.691406 174.085938 193.210938 172.179688 192.734375 170.347656 C 192.613281 169.886719 192.492188 169.425781 192.371094 168.976562 L 192.28125 168.644531 L 192.238281 168.472656 L 192.105469 168.53125 C 191.917969 168.65625 191.726562 168.777344 191.539062 168.902344 C 190.789062 169.402344 190.0625 169.882812 189.363281 170.34375 L 189.417969 170.167969 C 187.851562 171.167969 186.214844 172.210938 184.503906 173.304688 C 183.679688 173.785156 182.738281 174.523438 181.804688 175.210938 C 180.871094 175.910156 179.921875 176.613281 178.953125 177.332031 C 176.226562 179.359375 173.324219 181.515625 170.296875 183.765625 C 165.683594 187.164062 160.6875 190.84375 155.628906 194.574219 C 150.558594 198.292969 145.417969 202.066406 140.523438 205.65625 C 138.082031 207.457031 135.699219 209.21875 133.417969 210.902344 C 132.847656 211.324219 132.28125 211.742188 131.726562 212.15625 L 131.492188 212.332031 L 131.351562 212.445312 C 131.160156 212.605469 130.972656 212.757812 130.792969 212.90625 C 130.914062 212.828125 131.058594 212.703125 131.035156 212.878906 C 130.898438 212.96875 130.703125 213.109375 130.460938 213.28125 C 130.546875 214.128906 130.636719 214.972656 130.726562 215.796875 C 130.785156 216.359375 130.84375 216.921875 130.898438 217.476562 C 130.929688 217.75 130.960938 218.027344 130.988281 218.300781 L 131.007812 218.503906 L 131.015625 218.605469 L 131.023438 218.65625 L 131.023438 218.667969 L 131.007812 218.523438 C 130.921875 217.742188 130.832031 216.964844 130.746094 216.195312 C 130.636719 215.214844 130.523438 214.261719 130.414062 213.316406 L 130.378906 213.339844 C 130.355469 213.128906 130.328125 212.921875 130.300781 212.71875 L 130.339844 212.6875 L 130.320312 212.515625 L 130.28125 212.558594 L 130.273438 212.503906 L 130.316406 212.492188 C 130.097656 210.605469 129.886719 208.789062 129.6875 207.054688 C 129.636719 206.667969 129.59375 206.285156 129.550781 205.914062 C 129.722656 207.515625 129.898438 209.09375 130.074219 210.660156 L 130.136719 211.246094 L 130.113281 211.066406 L 130.066406 210.640625 C 130.035156 210.359375 130.003906 210.078125 129.972656 209.800781 C 129.714844 207.574219 129.472656 205.457031 129.246094 203.460938 C 128.785156 199.492188 128.386719 195.996094 128.050781 193.089844 C 125.785156 194.925781 124.40625 196.042969 123.414062 196.847656 C 123.851562 196.484375 124.203125 196.191406 124.28125 196.078125 C 112.289062 205.710938 99.113281 216.289062 86.761719 226.207031 C 81.875 230.15625 77.148438 233.972656 72.785156 237.503906 C 70.675781 239.238281 68.652344 240.902344 66.742188 242.476562 C 66.539062 242.6875 66.328125 242.917969 66.089844 243.1875 C 66.230469 243.035156 66.355469 242.9375 66.511719 242.839844 C 66.59375 242.792969 66.675781 242.746094 66.761719 242.699219 C 66.820312 242.660156 66.816406 242.675781 66.933594 242.59375 C 67.234375 242.363281 67.535156 242.136719 67.835938 241.902344 C 70.261719 240.054688 72.75 238.132812 74.972656 236.199219 C 73.714844 237.078125 71.152344 239.277344 70.761719 239.277344 C 75.855469 235.253906 79.691406 231.859375 84.519531 228.132812 C 83.882812 228.84375 78.609375 232.84375 79.324219 232.46875 C 88.089844 225.414062 98.734375 217.144531 103.667969 212.890625 C 104.945312 211.882812 106.222656 210.882812 107.484375 209.886719 C 109.664062 208.148438 111.828125 206.417969 113.992188 204.699219 C 118.628906 200.976562 123.238281 197.277344 127.847656 193.578125 C 128.355469 198.109375 128.867188 202.644531 129.375 207.1875 L 129.761719 210.601562 L 129.808594 211.027344 L 129.832031 211.246094 L 129.839844 211.296875 L 129.828125 211.179688 L 129.796875 210.894531 L 129.539062 208.605469 L 129.289062 206.3125 C 129.257812 206.023438 129.273438 206.1875 129.273438 206.179688 L 129.28125 206.257812 L 129.300781 206.410156 C 129.394531 207.234375 129.492188 208.050781 129.585938 208.878906 C 129.765625 210.417969 129.941406 211.980469 130.121094 213.527344 C 129.984375 213.628906 129.835938 213.738281 129.675781 213.855469 C 129.785156 214.867188 129.902344 215.941406 130.019531 217.027344 C 130.082031 217.570312 130.136719 218.113281 130.195312 218.65625 C 129.941406 216.410156 129.691406 214.171875 129.445312 211.96875 C 129.296875 210.753906 129.160156 209.574219 129.03125 208.488281 C 128.964844 207.949219 128.90625 207.433594 128.847656 206.945312 L 128.828125 206.761719 L 128.816406 206.671875 L 128.8125 206.652344 L 128.824219 206.765625 L 128.855469 207.070312 C 128.945312 207.878906 129.035156 208.667969 129.121094 209.445312 C 129.183594 210.046875 129.25 210.636719 129.3125 211.214844 C 129.277344 210.925781 129.246094 210.640625 129.214844 210.359375 C 129.410156 212.0625 128.972656 208.558594 128.511719 204.652344 C 128.046875 200.746094 127.558594 196.398438 127.625 196.085938 C 127.621094 196.097656 127.628906 196.171875 127.640625 196.308594 C 127.65625 196.4375 127.675781 196.632812 127.703125 196.875 C 127.753906 197.347656 127.832031 198.015625 127.917969 198.777344 C 128.089844 200.296875 128.3125 202.207031 128.496094 203.773438 C 128.863281 206.910156 129.089844 208.6875 128.472656 203.171875 C 128.140625 200.246094 127.816406 197.324219 127.488281 194.449219 C 120.925781 199.714844 114.394531 204.949219 107.933594 210.128906 C 104.261719 213.035156 100.632812 215.902344 97.066406 218.722656 C 89.925781 224.351562 83.042969 229.792969 76.671875 234.988281 C 77.28125 234.542969 78.722656 233.25 78.738281 233.402344 C 75.925781 235.839844 72.164062 238.960938 68.207031 242.175781 C 67.738281 242.558594 67.261719 242.945312 66.789062 243.332031 C 66.582031 243.496094 66.375 243.660156 66.175781 243.816406 C 65.769531 244.128906 65.386719 244.410156 65.058594 244.636719 C 64.839844 244.953125 64.597656 245.230469 64.347656 245.476562 C 64.292969 245.089844 64.382812 244.3125 64.433594 243.6875 C 64.484375 243.050781 64.492188 242.539062 64.3125 242.121094 C 64.140625 242.625 64.0625 243.414062 63.789062 243.960938 C 63.597656 243.609375 63.460938 242.933594 63.277344 242.453125 C 63.082031 241.992188 62.847656 241.652344 62.425781 242.433594 C 62.375 242.058594 62.257812 241.996094 62.15625 241.820312 C 62.050781 241.746094 61.980469 241.132812 62.035156 239.582031 C 62.125 239.628906 62.160156 238.070312 62.0625 239.066406 C 61.585938 239.214844 61.921875 232.941406 62.089844 229.6875 C 61.867188 231.9375 61.773438 236.304688 61.417969 236.425781 C 61.5 235.136719 61.570312 233.90625 61.441406 233.820312 C 61.269531 236.601562 61.09375 239.277344 60.734375 238.992188 C 60.828125 238.207031 60.972656 234.472656 60.898438 234.835938 C 60.71875 235.746094 60.773438 238.210938 60.617188 238.984375 C 60.074219 241.585938 59.210938 237.335938 59.574219 234.765625 C 59.453125 235.070312 59.445312 237.226562 59.3125 237.351562 C 59.261719 236.410156 59.09375 236.050781 58.953125 237.332031 L 59.253906 237.347656 C 59.296875 238.28125 59.222656 241.777344 59.003906 242.996094 C 58.734375 242.199219 58.519531 243.023438 58.511719 240.957031 C 58.636719 239.019531 58.984375 235.648438 58.941406 234.207031 C 58.777344 235.78125 58.671875 238.371094 58.476562 239.394531 C 58.78125 233.210938 58.550781 238.324219 58.265625 239.902344 C 58.246094 239.195312 58.164062 238.855469 58.109375 238.332031 C 57.9375 239.070312 58.117188 239.601562 57.964844 239.886719 C 57.941406 238.222656 57.664062 240.230469 57.6875 238.308594 C 57.71875 237.066406 57.96875 234.542969 57.851562 234.148438 C 57.65625 235.84375 57.585938 239.605469 57.238281 238.808594 C 57.269531 238.027344 57.363281 236.890625 57.289062 236.722656 C 57.121094 239.84375 57.246094 236.019531 57.023438 238.273438 C 56.878906 238.421875 57.039062 236.765625 56.925781 236.703125 C 56.789062 239.300781 56.671875 237.5 56.628906 236.6875 C 56.648438 235.609375 56.886719 233.28125 56.761719 233.050781 C 56.625 234.015625 56.574219 236.488281 56.417969 237.195312 C 56.457031 236.332031 56.707031 232.496094 56.527344 234.078125 C 56.417969 236.519531 56.269531 238.363281 56.03125 238.742188 C 56.269531 235.929688 56.125 233.488281 55.894531 234.566406 C 55.921875 235.125 56.109375 234.738281 55.992188 236.132812 C 55.910156 236.132812 55.886719 237.042969 55.816406 237.164062 C 55.648438 235.265625 55.335938 237.929688 55.039062 239.207031 C 55.007812 238.425781 55.078125 237.082031 55 236.601562 C 54.90625 237.851562 54.867188 239.261719 54.832031 240.492188 C 54.800781 241.300781 54.773438 242.050781 54.75 242.691406 C 54.714844 243.441406 54.671875 244.0625 54.628906 244.503906 C 54.28125 243.484375 54.023438 246.964844 53.710938 248.054688 C 53.53125 247.300781 53.558594 244.835938 53.605469 242.152344 C 53.382812 245.058594 53.335938 243.980469 53.339844 242.21875 C 53.339844 241.8125 53.34375 241.378906 53.347656 240.953125 C 53.34375 240.683594 53.335938 240.421875 53.335938 240.203125 C 53.332031 239.765625 53.328125 239.492188 53.320312 239.636719 C 53.285156 240.3125 53.242188 241.109375 53.199219 241.871094 C 53.121094 243.011719 53.046875 244.109375 52.988281 244.9375 C 52.859375 246.597656 52.753906 247.222656 52.792969 244.929688 C 52.683594 246.285156 52.605469 249.652344 52.476562 249.574219 C 52.515625 248.242188 52.808594 244.773438 52.667969 244.957031 C 52.613281 245.6875 52.566406 246.792969 52.507812 246.839844 C 52.53125 246.328125 52.515625 245.792969 52.441406 246.863281 C 52.464844 249.976562 51.753906 263.03125 51.371094 266.5625 C 51.277344 265.59375 51.855469 256.121094 51.6875 257.386719 C 51.453125 261.589844 50.890625 273.167969 50.921875 268.191406 C 50.863281 269.441406 50.804688 270.703125 50.746094 271.980469 C 56.046875 267.65625 61.304688 263.414062 66.496094 259.292969 C 69.109375 257.238281 71.695312 255.207031 74.222656 253.214844 C 74.683594 252.863281 75.140625 252.507812 75.59375 252.160156 C 75.941406 251.902344 76.28125 251.644531 76.621094 251.386719 C 77.304688 250.882812 77.980469 250.386719 78.644531 249.894531 C 78.117188 250.367188 76.992188 251.3125 76.074219 252.097656 C 75.535156 252.558594 75.054688 252.96875 74.75 253.234375 C 74.25 253.667969 74.035156 253.871094 74.304688 253.691406 C 74.667969 253.367188 74.996094 253.074219 75.300781 252.800781 C 75.476562 252.640625 75.648438 252.503906 75.808594 252.382812 C 76.132812 252.136719 76.425781 251.953125 76.695312 251.792969 C 77.230469 251.476562 77.671875 251.253906 78.0625 250.828125 C 77.738281 251.070312 77.558594 251.164062 77.582031 251.058594 C 78.527344 250.382812 78.722656 249.929688 79.902344 248.957031 C 88.734375 241.703125 106.09375 228.839844 114.769531 221.695312 C 114.449219 221.9375 113.96875 222.335938 113.921875 222.300781 C 114.820312 221.59375 115.75 220.863281 116.707031 220.109375 L 116.796875 220.074219 L 116.9375 219.996094 C 116.949219 220.097656 116.960938 220.199219 116.972656 220.300781 C 117.054688 221.035156 117.136719 221.773438 117.21875 222.519531 C 117.304688 223.261719 117.386719 224.003906 117.472656 224.75 L 117.535156 225.3125 L 117.550781 225.449219 L 117.558594 225.484375 L 117.554688 225.5 L 117.554688 225.464844 L 117.511719 225.074219 L 117.335938 223.527344 L 116.996094 220.429688 L 117.183594 222.144531 C 117.78125 227.46875 118.378906 232.816406 118.976562 238.167969 C 125.429688 233.445312 131.90625 228.710938 138.261719 224.0625 C 141.703125 221.5625 145.082031 219.109375 148.324219 216.753906 C 147.277344 217.511719 146.597656 218.058594 146.296875 218.386719 C 148.257812 216.953125 150.21875 215.523438 152.183594 214.085938 C 150.445312 214.871094 154.699219 212.410156 152.492188 213.632812 C 155.171875 211.644531 158.007812 209.941406 160.515625 207.839844 C 159.476562 208.613281 158.753906 209.09375 158.34375 209.277344 C 164.898438 204.542969 171.460938 199.574219 177.886719 194.777344 C 179.386719 193.664062 180.878906 192.554688 182.351562 191.457031 C 182.445312 191.378906 182.546875 191.300781 182.644531 191.242188 C 182.738281 191.183594 182.824219 191.144531 182.882812 191.144531 C 182.894531 191.269531 182.863281 191.457031 182.816406 191.578125 C 182.800781 191.582031 182.804688 191.546875 182.757812 191.621094 C 182.785156 191.671875 182.816406 191.738281 182.839844 191.816406 L 182.84375 191.8125 L 182.847656 191.914062 L 182.875 192.316406 C 182.886719 192.582031 182.898438 192.84375 182.914062 193.105469 C 182.929688 193.621094 182.949219 194.125 182.949219 194.613281 C 182.964844 195.589844 182.9375 196.507812 182.910156 197.371094 L 182.632812 205.691406 L 183.042969 197.378906 C 183.128906 195.671875 183.144531 193.878906 183.042969 191.980469 L 183.027344 191.734375 L 183.015625 191.636719 L 182.984375 191.441406 C 183.082031 191.457031 183.140625 191.582031 183.179688 191.742188 L 183.191406 191.792969 C 183.203125 192.027344 183.21875 192.261719 183.234375 192.503906 C 183.261719 193 183.28125 193.515625 183.289062 194.042969 C 183.308594 195.09375 183.300781 196.210938 183.25 197.390625 L 182.558594 212.996094 L 194.441406 203.007812 C 195.03125 202.507812 195.71875 201.933594 196.433594 201.332031 C 196.585938 201.375 195.027344 202.527344 194.464844 203.03125 C 198.378906 200.109375 204.539062 194.597656 210.125 190.128906 C 212.242188 188.4375 209.371094 190.867188 208.558594 191.5 C 207.488281 192.382812 206.414062 193.265625 205.347656 194.148438 C 201.675781 197.277344 198.269531 200.109375 194.566406 203.164062 L 182.378906 213.230469 L 182.371094 213.539062 L 194.65625 203.269531 C 200.875 198.066406 205.960938 193.816406 213.816406 187.246094 C 213.886719 187.296875 213.710938 187.503906 213.53125 187.71875 C 214.554688 186.867188 215.421875 186.117188 215.863281 185.636719 C 215.316406 185.847656 213.863281 187.257812 212.535156 188.148438 C 216.039062 185.359375 217.113281 184.082031 219.324219 182.476562 C 218.445312 183.355469 217.371094 184.007812 216.589844 184.886719 C 219.808594 182.28125 221.71875 180.527344 224.984375 177.890625 C 225.820312 177.089844 224.386719 178.195312 225.273438 177.421875 C 225.585938 177.484375 229.347656 173.800781 227.757812 175.53125 C 229.917969 173.765625 233.460938 170.996094 234.949219 169.527344 C 234.082031 170.113281 231.972656 171.988281 231.257812 172.414062 C 233.5 170.335938 237.546875 167.125 240.496094 164.804688 C 238.609375 166.414062 237.816406 166.945312 237.359375 167.542969 C 239.585938 165.867188 239.40625 165.644531 241.378906 164.234375 C 241.464844 164.023438 240.679688 164.609375 241.261719 164.097656 C 244.5625 161.34375 245.984375 160.164062 249.773438 157.007812 L 249.777344 157.160156 C 249.855469 157.050781 250.066406 157.019531 250.050781 156.855469 L 249.882812 156.917969 C 249.972656 156.796875 250.34375 156.351562 250.410156 156.480469 C 250.28125 156.757812 250.179688 156.570312 250.105469 156.890625 C 250.421875 156.609375 250.507812 156.75 250.785156 156.210938 L 250.8125 156.179688 C 250.769531 156.5 250.726562 156.832031 250.632812 156.816406 C 250.71875 156.875 250.839844 157.40625 250.929688 157.375 C 250.828125 156.953125 250.847656 156.761719 250.902344 156.789062 C 250.953125 156.8125 251.0625 157.136719 251.09375 157.5625 C 251.019531 157.589844 251 157.515625 250.910156 157.578125 C 251.847656 162.242188 252.78125 166.886719 253.707031 171.492188 C 254.371094 174.804688 255.03125 178.101562 255.6875 181.375 L 255.875 182.300781 L 255.90625 182.453125 L 255.949219 182.464844 L 256.011719 182.417969 L 257.023438 181.695312 C 257.699219 181.210938 258.367188 180.730469 259.042969 180.246094 C 260.386719 179.285156 261.726562 178.324219 263.0625 177.367188 C 267.613281 174.089844 272.085938 170.871094 276.441406 167.734375 C 279.128906 165.777344 281.730469 163.859375 284.222656 161.980469 C 283.890625 162.207031 283.394531 162.585938 283.347656 162.546875 C 284.941406 161.367188 286.015625 160.585938 284.683594 161.71875 C 287.742188 159.464844 291.578125 156.878906 292.558594 155.683594 C 290.484375 157.242188 289.121094 158.128906 288.214844 158.589844 C 294.871094 153.441406 292.96875 154.9375 299.117188 150.507812 C 298.144531 150.855469 302.792969 147.09375 302.320312 147.808594 C 307.683594 143.6875 309.46875 141.640625 314.347656 137.757812 C 314.367188 137.886719 313 138.835938 313.210938 138.847656 C 316.828125 135.96875 316.976562 136.398438 320.414062 133.671875 C 320.46875 133.371094 319.066406 134.472656 318.574219 134.695312 C 319.34375 134.097656 319.9375 133.609375 320.160156 133.335938 C 319.015625 134.175781 319.449219 133.550781 319.5625 133.410156 C 321.355469 132.128906 320.566406 132.691406 319.902344 133 C 322.277344 131.042969 323.824219 130.1875 326.53125 127.921875 C 326.433594 127.660156 325.378906 128.84375 324.804688 129.097656 C 325.84375 128.09375 324.371094 129.164062 324.171875 129.128906 C 325.0625 128.289062 327.640625 126.21875 325.222656 127.9375 C 326.695312 126.652344 327.820312 126.296875 327.703125 126.027344 C 326.402344 127.042969 326.226562 126.964844 324.734375 128.160156 C 325.800781 127.152344 323.289062 128.605469 322.824219 129.09375 C 323.246094 128.773438 323.410156 128.777344 322.898438 129.191406 C 321.839844 129.992188 320.761719 130.8125 320.71875 130.632812 C 321.683594 129.402344 324 127.589844 327.078125 125.21875 C 327.234375 124.910156 327.164062 124.816406 328.511719 123.65625 C 329.007812 123.296875 330.214844 122.644531 330.605469 122.113281 C 329.554688 122.917969 328.953125 123.277344 328.8125 123.191406 "/>
</g>
</g>
</g>
</g>
</g>
<g clip-path="url(#clip60)" clip-rule="nonzero">
<g clip-path="url(#clip61)" clip-rule="nonzero">
<g clip-path="url(#clip62)" clip-rule="nonzero">
<path style=" stroke:none;fill-rule:nonzero;fill:rgb(0%,70.588684%,84.709167%);fill-opacity:1;" d="M 315.65625 124.019531 L 315.652344 124.019531 L 315.636719 124.03125 Z M 315.65625 124.019531 "/>
</g>
</g>
</g>
<g clip-path="url(#clip63)" clip-rule="nonzero">
<g clip-path="url(#clip64)" clip-rule="nonzero">
<g clip-path="url(#clip65)" clip-rule="nonzero">
<path style=" stroke:none;fill-rule:nonzero;fill:rgb(0%,70.588684%,84.709167%);fill-opacity:1;" d="M 222.414062 162.5 C 223.570312 161.667969 225.945312 159.625 228.449219 157.527344 C 229.519531 156.632812 233.484375 153.453125 232.03125 154.5 C 227.8125 157.988281 225.40625 159.996094 223.070312 161.648438 C 222.914062 161.890625 222.570312 162.257812 222.414062 162.5 "/>
</g>
</g>
</g>
<g clip-path="url(#clip66)" clip-rule="nonzero">
<g clip-path="url(#clip67)" clip-rule="nonzero">
<g clip-path="url(#clip68)" clip-rule="nonzero">
<path style=" stroke:none;fill-rule:nonzero;fill:rgb(0%,70.588684%,84.709167%);fill-opacity:1;" d="M 130.898438 212.113281 C 130.785156 212.226562 130.652344 212.339844 130.625 212.203125 C 130.78125 211.988281 131.078125 211.914062 131.058594 211.667969 C 130.875 211.847656 130.609375 212.085938 130.355469 212.3125 C 130.371094 212.421875 130.378906 212.53125 130.394531 212.640625 C 130.707031 212.375 131.007812 212.117188 131.273438 211.882812 C 131.117188 211.886719 131.023438 211.992188 130.898438 212.113281 "/>
</g>
</g>
</g>
<g clip-path="url(#clip69)" clip-rule="nonzero">
<g clip-path="url(#clip70)" clip-rule="nonzero">
<g clip-path="url(#clip71)" clip-rule="nonzero">
<path style=" stroke:none;fill-rule:nonzero;fill:rgb(0%,70.588684%,84.709167%);fill-opacity:1;" d="M 202.058594 179.582031 C 199.886719 181.363281 200.910156 180.53125 201.136719 180.101562 C 200.265625 180.976562 197.53125 183.054688 196.792969 183.839844 C 197.273438 183.457031 197.925781 182.890625 198.035156 182.890625 C 197.59375 183.273438 197.453125 183.460938 197.308594 183.648438 C 198.6875 182.46875 202.378906 179.421875 202.058594 179.582031 "/>
</g>
</g>
</g>
<g clip-path="url(#clip72)" clip-rule="nonzero">
<g clip-path="url(#clip73)" clip-rule="nonzero">
<g clip-path="url(#clip74)" clip-rule="nonzero">
<path style=" stroke:none;fill-rule:nonzero;fill:rgb(0%,70.588684%,84.709167%);fill-opacity:1;" d="M 316.089844 125.4375 C 316.039062 125.511719 316.007812 125.5625 315.992188 125.613281 C 316.097656 125.519531 316.140625 125.453125 316.089844 125.4375 "/>
</g>
</g>
</g>
</g>
</svg>
